<svg xmlns="http://www.w3.org/2000/svg" viewBox="0 0 360 220">
<defs><linearGradient id="bg" x2="1" y2="1"><stop stop-color="#fff3f8"/><stop offset="1" stop-color="#ffd2e6"/></linearGradient><filter id="sh"><feDropShadow dx="0" dy="5" stdDeviation="5" flood-color="#c76f9b" flood-opacity=".18"/></filter></defs>
<rect width="360" height="220" rx="38" fill="url(#bg)"/><circle cx="48" cy="48" r="8" fill="#fff"/><circle cx="313" cy="44" r="7" fill="#fff"/><text x="35" y="105" font-size="22" fill="#ff9a79">♡</text><text x="305" y="120" font-size="24" fill="#ff9a79">✦</text>
<g filter="url(#sh)"><path d="M116 68h128l-12 108q-2 15-17 15h-70q-15 0-17-15Z" fill="#f4a45d" stroke="#7d5362" stroke-width="5"/><path d="M111 69h138" stroke="#7d5362" stroke-width="6" stroke-linecap="round"/><path d="M242 98q46 0 46 35t-48 30" fill="none" stroke="#7d5362" stroke-width="8"/><path d="M137 93v76" stroke="#fff" stroke-opacity=".35" stroke-width="7" stroke-linecap="round"/><path d="M160 48c-12-17 12-24 20-8 8-16 32-9 20 8-10 14-30 25-40 0Z" fill="#ff6f9f" stroke="#d95584" stroke-width="3"/><path d="M180 40l-5-10m5 10l7-10" stroke="#70ad76" stroke-width="4" stroke-linecap="round"/></g>
<path d="M145 191q35 14 70 0" fill="none" stroke="#f28ab7" stroke-width="4" stroke-linecap="round"/><text x="180" y="212" text-anchor="middle" font-family="Nunito, sans-serif" font-size="15" font-weight="800" fill="#c95e91">quqi koffie ♡</text></svg>