<svg xmlns="http://www.w3.org/2000/svg" viewBox="0 0 360 220">
<defs><linearGradient id="bg" x2="1" y2="1"><stop stop-color="#fff3f8"/><stop offset="1" stop-color="#ffd2e6"/></linearGradient><filter id="sh"><feDropShadow dx="0" dy="5" stdDeviation="5" flood-color="#c76f9b" flood-opacity=".18"/></filter></defs>
<rect width="360" height="220" rx="38" fill="url(#bg)"/><circle cx="48" cy="48" r="8" fill="#fff"/><circle cx="313" cy="44" r="7" fill="#fff"/><text x="35" y="105" font-size="22" fill="#e97cab">♡</text><text x="305" y="120" font-size="24" fill="#e97cab">✦</text>
<g filter="url(#sh)"><path d="M116 68h128l-12 108q-2 15-17 15h-70q-15 0-17-15Z" fill="#7b4b3b" stroke="#7d5362" stroke-width="5"/><path d="M111 69h138" stroke="#7d5362" stroke-width="6" stroke-linecap="round"/><path d="M242 98q46 0 46 35t-48 30" fill="none" stroke="#7d5362" stroke-width="8"/><path d="M137 93v76" stroke="#fff" stroke-opacity=".35" stroke-width="7" stroke-linecap="round"/><path d="M112 68 Q145 35 180 61 Q215 35 248 68 Q232 83 180 80 Q128 83 112 68Z" fill="#fff5f8" stroke="#f0a4c6" stroke-width="4"/></g>
<path d="M145 191q35 14 70 0" fill="none" stroke="#f28ab7" stroke-width="4" stroke-linecap="round"/><text x="180" y="212" text-anchor="middle" font-family="Nunito, sans-serif" font-size="15" font-weight="800" fill="#c95e91">quqi koffie ♡</text></svg>